<?xml version="1.0" encoding="UTF-8"?>
<svg id="Capa_2" data-name="Capa 2" xmlns="http://www.w3.org/2000/svg" viewBox="0 0 26 26">
  <defs>
    <style>
      .cls-1 {
        fill: #fff;
      }

      .cls-2 {
        fill: #e83e33;
      }
    </style>
  </defs>
  <g id="Capa_1-2" data-name="Capa 1">
    <g>
      <path class="cls-2" d="M8.68,12.91c-.63,0-1.15.49-1.15,1.11s.52,1.1,1.15,1.1,1.15-.49,1.15-1.1-.51-1.11-1.15-1.11Z"/>
      <path class="cls-2" d="M17.11,12.91c-.64,0-1.15.49-1.15,1.11s.51,1.1,1.15,1.1,1.15-.49,1.15-1.1-.52-1.11-1.15-1.11Z"/>
      <polygon class="cls-2" points="8.68 8.11 7.53 11.43 18.26 11.43 17.11 8.11 8.68 8.11"/>
      <path class="cls-2" d="M13,0C5.82,0,0,5.82,0,13s5.82,13,13,13,13-5.82,13-13S20.18,0,13,0ZM19.79,18.08c0,.41-.35.74-.77.74h-.76c-.43,0-.77-.33-.77-.74v-.74h-9.19v.74c0,.41-.35.74-.77.74h-.76c-.43,0-.77-.33-.77-.74v-5.91l1.59-4.42c.16-.44.59-.75,1.09-.75h8.43c.5,0,.93.31,1.08.75l1.6,4.42v5.91Z"/>
      <path class="cls-1" d="M17.11,7h-8.43c-.5,0-.93.31-1.09.75l-1.59,4.42v5.91c0,.41.34.74.77.74h.76c.42,0,.77-.33.77-.74v-.74h9.19v.74c0,.41.34.74.77.74h.76c.42,0,.77-.33.77-.74v-5.91l-1.6-4.42c-.15-.44-.58-.75-1.08-.75ZM8.68,15.12c-.63,0-1.15-.49-1.15-1.1s.52-1.11,1.15-1.11,1.15.49,1.15,1.11-.51,1.1-1.15,1.1ZM17.11,15.12c-.64,0-1.15-.49-1.15-1.1s.51-1.11,1.15-1.11,1.15.49,1.15,1.11-.52,1.1-1.15,1.1ZM7.53,11.43l1.15-3.32h8.43l1.15,3.32H7.53Z"/>
    </g>
  </g>
</svg>