<?xml version="1.0" encoding="UTF-8"?>
<svg id="Capa_1" data-name="Capa 1" xmlns="http://www.w3.org/2000/svg" version="1.1" viewBox="0 0 174 26">
  <defs>
    <style>
      .cls-1 {
        fill: #4285f4;
      }

      .cls-1, .cls-2, .cls-3, .cls-4, .cls-5, .cls-6 {
        stroke-width: 0px;
      }

      .cls-2 {
        fill: #fbbc04;
      }

      .cls-3 {
        fill: #34a853;
      }

      .cls-4 {
        fill: #1a73e8;
      }

      .cls-5 {
        fill: #ea4335;
      }

      .cls-6 {
        fill: #202022;
      }
    </style>
  </defs>
  <g id="g19">
    <g id="g842">
      <path id="path835" class="cls-3" d="M9.3,18.5c.7.8,1.3,1.9,1.7,2.5.4.8.6,1.4.9,2.4.2.5.4.7.7.7s.6-.3.7-.7c.3-.9.5-1.6.9-2.3.7-1.3,1.6-2.5,2.5-3.6.2-.3,1.8-2.1,2.5-3.6,0,0,.9-1.6.9-3.8s-.8-3.5-.8-3.5l-2.4.7-1.5,3.9-.4.5h0c0,.1-.1.2-.1.2l-.2.2-.2.2-1.3,1.1-3.3,1.9-.5,3.2Z"/>
      <path id="path833" class="cls-2" d="M5.9,13.6c.8,1.8,2.4,3.5,3.4,4.9l5.6-6.6s-.8,1-2.2,1-2.9-1.3-2.9-2.9.7-1.9.7-1.9l-3.8,1-.8,4.4Z"/>
      <path id="path831" class="cls-1" d="M15,2.8c1.9.6,3.4,1.9,4.4,3.7l-4.5,5.3s.7-.8.7-1.9c0-1.6-1.4-2.9-2.9-2.9s-2.2,1-2.2,1v-3.4l4.5-2Z"/>
      <path id="path829" class="cls-4" d="M7,5.2c1.1-1.3,3.1-2.7,5.7-2.7s2.3.3,2.3.3l-4.5,5.3h-3.2l-.4-3Z"/>
      <path id="path827" class="cls-5" d="M5.9,13.6s-.7-1.5-.7-3.5.8-3.7,1.8-4.8l3.5,3-4.6,5.4Z"/>
    </g>
  </g>
  <path class="cls-6" d="M29.5,18.7v-10.6h5.8c.7,0,1.3.2,1.9.5.6.3,1,.7,1.3,1.2.3.5.5,1.1.5,1.8s-.2,1.3-.5,1.9c-.3.6-.8,1-1.4,1.3-.6.3-1.2.5-2,.5h-3v3.5h-2.6ZM32.1,13h2.6c.3,0,.6,0,.8-.2.3-.1.4-.3.6-.5.2-.2.2-.4.2-.7s0-.5-.2-.7c-.1-.2-.3-.3-.6-.4-.2-.1-.5-.2-.8-.2h-2.6v2.6ZM42.6,18.7v-10.6h2.6v8.3h6.1v2.3h-8.7ZM53.1,18.7l4.9-10.6h2.3l4.8,10.6h-2.7l-2.7-6c0-.2-.2-.4-.3-.7,0-.2-.2-.4-.3-.6,0-.2-.2-.4-.2-.6,0-.2-.1-.4-.2-.6h.5c0,.2-.1.4-.2.6,0,.2-.2.4-.2.6,0,.2-.2.4-.3.6,0,.2-.2.4-.3.7l-2.7,5.9h-2.6ZM55.3,16.8l.8-1.9h5.8l.5,1.9h-7.2ZM73,18.9c-.9,0-1.7-.1-2.4-.4-.7-.3-1.4-.6-2-1.1-.6-.5-1-1.1-1.3-1.7-.3-.7-.5-1.4-.5-2.2s.2-1.5.5-2.2c.3-.7.8-1.2,1.3-1.7s1.2-.9,2-1.1c.8-.3,1.6-.4,2.4-.4s1.2,0,1.8.2c.6.1,1.1.3,1.6.6.5.2.9.5,1.3.8l-1.5,2c-.3-.2-.6-.4-.9-.6-.3-.2-.7-.3-1.1-.5-.4-.1-.8-.2-1.3-.2s-.9,0-1.3.2c-.4.1-.8.3-1.1.6-.3.3-.6.6-.8,1-.2.4-.3.8-.3,1.3s.1.9.3,1.3c.2.4.5.7.8,1,.3.3.7.5,1.2.6.5.1.9.2,1.4.2s.9,0,1.3-.2c.4-.1.7-.3,1.1-.5.3-.2.6-.4.8-.6l1.2,2c-.3.3-.7.5-1.2.8-.5.3-1,.5-1.6.6-.6.2-1.2.2-1.9.2ZM80.9,18.7v-10.6h8.7v2.2h-6.2v6.2h6.4v2.2h-8.9ZM82.2,14.4v-2.1h6.8v2.1h-6.8ZM101.5,18.7v-10.6h2.6v10.6h-2.6ZM93.6,18.7v-10.6h2.6v10.6h-2.6ZM94.6,14.6v-2.3h8.3v2.3h-8.3ZM113.8,18.9c-.9,0-1.8-.1-2.5-.4-.8-.3-1.4-.7-2-1.2-.6-.5-1-1.1-1.3-1.7-.3-.7-.5-1.4-.5-2.2s.2-1.5.5-2.2c.3-.7.8-1.2,1.3-1.7.6-.5,1.2-.9,2-1.2.8-.3,1.6-.4,2.5-.4s1.8.1,2.5.4c.8.3,1.4.7,2,1.2.6.5,1,1.1,1.3,1.7.3.7.5,1.4.5,2.2s-.2,1.5-.5,2.2c-.3.7-.7,1.3-1.3,1.8-.6.5-1.2.9-2,1.2-.8.3-1.6.4-2.5.4ZM113.8,16.5c.5,0,1,0,1.5-.2.4-.2.8-.4,1.2-.7.3-.3.6-.6.8-1,.2-.4.3-.8.3-1.2s0-.8-.3-1.2c-.2-.4-.4-.7-.8-1-.3-.3-.7-.5-1.2-.7-.4-.2-.9-.2-1.5-.2s-1,0-1.5.2c-.4.2-.8.4-1.2.6-.3.3-.6.6-.8,1-.2.4-.3.8-.3,1.2s0,.8.3,1.2c.2.4.4.7.8,1,.3.3.7.5,1.2.7.4.2.9.2,1.5.2ZM123.6,18.7v-10.6h2.6v8.3h6.1v2.3h-8.7ZM135.6,18.7v-10.6h5.2c.9,0,1.7.1,2.5.4.7.3,1.3.7,1.8,1.1.5.5.9,1,1.2,1.7.3.6.4,1.3.4,2.1s-.1,1.4-.4,2.1c-.3.6-.7,1.2-1.2,1.7-.5.5-1.1.9-1.9,1.1-.7.3-1.5.4-2.5.4h-5.2ZM138.2,17l-.3-.5h2.9c.6,0,1,0,1.5-.2.4-.2.8-.4,1-.7.3-.3.5-.6.6-1,.1-.4.2-.8.2-1.2s0-.8-.2-1.2-.3-.7-.6-1c-.3-.3-.6-.5-1-.7-.4-.2-.9-.2-1.5-.2h-3l.4-.5v7.1ZM150.2,18.7v-10.6h8.7v2.2h-6.2v6.2h6.4v2.2h-8.9ZM151.5,14.4v-2.1h6.8v2.1h-6.8ZM162.9,18.7v-10.6h5.7c.8,0,1.5.1,2,.4.6.3,1,.7,1.3,1.2.3.5.5,1.1.5,1.8s-.2,1.3-.5,1.8c-.3.5-.8,1-1.4,1.3-.6.3-1.2.5-2,.5h-3.2v3.7h-2.5ZM169.9,18.7l-3.3-4.8,2.7-.4,3.6,5.2h-3ZM165.3,13.1h2.9c.3,0,.6,0,.8-.2.2-.1.4-.3.5-.5.1-.2.2-.5.2-.7s0-.5-.2-.7c-.1-.2-.3-.4-.6-.5-.2-.1-.5-.2-.8-.2h-2.8v2.8Z"/>
</svg>