<?xml version="1.0" encoding="UTF-8"?>
<svg id="Capa_1" data-name="Capa 1" xmlns="http://www.w3.org/2000/svg" version="1.1" viewBox="0 0 173 12.7">
  <defs>
    <style>
      .cls-1 {
        fill: #202022;
        stroke-width: 0px;
      }
    </style>
  </defs>
  <path class="cls-1" d="M2.1,12.7V.2h6.9c.8,0,1.5.2,2.2.6s1.2.8,1.5,1.4.6,1.3.6,2.1-.2,1.5-.6,2.2c-.4.7-.9,1.2-1.7,1.5-.7.4-1.4.6-2.4.6h-3.6v4.1H1.9h.2ZM5.2,6h3.1c.4,0,.7,0,.9-.2.4-.1.5-.4.7-.6.2-.2.2-.5.2-.8s0-.6-.2-.8c-.1-.2-.4-.4-.7-.5-.2-.1-.6-.2-.9-.2h-3.1v3.1h0ZM17.6,12.7V.2h3.1v9.8h7.2v2.7h-10.3ZM30.1,12.7L35.9.2h2.7l5.7,12.5h-3.2l-3.2-7.1c0-.2-.2-.5-.4-.8,0-.2-.2-.5-.4-.7,0-.2-.2-.5-.2-.7s0-.5-.2-.7h.6c0,.2,0,.5-.2.7,0,.2-.2.5-.2.7s-.2.5-.4.7c0,.2-.2.5-.4.8l-3.2,7h-3.1.3ZM32.7,10.5l.9-2.2h6.9l.6,2.2h-8.5,0ZM53.6,13c-1.1,0-2-.1-2.8-.5s-1.7-.7-2.4-1.3-1.2-1.3-1.5-2c-.4-.8-.6-1.7-.6-2.6s.2-1.8.6-2.6.9-1.4,1.5-2,1.4-1.1,2.4-1.3c.9-.4,1.9-.5,2.8-.5s1.4,0,2.1.2c.7,0,1.3.4,1.9.7.6.2,1.1.6,1.5.9l-1.8,2.4c-.4-.2-.7-.5-1.1-.7-.4-.2-.8-.4-1.3-.6-.5-.1-.9-.2-1.5-.2s-1.1,0-1.5.2c-.5.1-.9.4-1.3.7-.4.4-.7.7-.9,1.2s-.4.9-.4,1.5,0,1.1.4,1.5c.2.5.6.8.9,1.2.4.4.8.6,1.4.7s1.1.2,1.7.2,1.1,0,1.5-.2c.5-.1.8-.4,1.3-.6.4-.2.7-.5.9-.7l1.4,2.4c-.4.4-.8.6-1.4.9s-1.2.6-1.9.7c-.7.2-1.4.2-2.2.2h.2v.2ZM63,12.7V.2h10.3v2.6h-7.3v7.3h7.6v2.6h-10.6ZM64.5,7.6v-2.5h8v2.5h-8ZM87.4,12.7V.2h3.1v12.5h-3.1ZM78,12.7V.2h3.1v12.5h-3.1ZM79.2,7.9v-2.7h9.8v2.7h-9.8ZM101.9,13c-1.1,0-2.1-.1-3-.5s-1.7-.8-2.4-1.4-1.2-1.3-1.5-2c-.4-.8-.6-1.7-.6-2.6s.2-1.8.6-2.6.9-1.4,1.5-2c.7-.6,1.4-1.1,2.4-1.4s1.9-.5,3-.5,2.1,0,3,.5,1.7.8,2.4,1.4c.7.6,1.2,1.3,1.5,2,.4.8.6,1.7.6,2.6s-.2,1.8-.6,2.6c-.4.8-.8,1.5-1.5,2.1s-1.4,1.1-2.4,1.4c-.9.4-1.9.5-3,.5h0ZM101.9,10.1c.6,0,1.2,0,1.8-.2.5-.2.9-.5,1.4-.8.4-.4.7-.7.9-1.2.2-.5.4-.9.4-1.4s0-.9-.4-1.4c-.2-.5-.5-.8-.9-1.2s-.8-.6-1.4-.8c-.5-.2-1.1-.2-1.8-.2s-1.2,0-1.8.2c-.5.2-.9.5-1.4.7-.4.4-.7.7-.9,1.2-.2.5-.4.9-.4,1.4s0,.9.4,1.4c.2.5.5.8.9,1.2s.8.6,1.4.8c.5.2,1.1.2,1.8.2h0ZM113.5,12.7V.2h3.1v9.8h7.2v2.7s-10.3,0-10.3,0ZM127.7,12.7V.2h6.2c1.1,0,2,0,3,.5.8.4,1.5.8,2.1,1.3.6.6,1.1,1.2,1.4,2,.4.7.5,1.5.5,2.5s-.1,1.7-.5,2.5c-.4.7-.8,1.4-1.4,2s-1.3,1.1-2.2,1.3c-.8.4-1.8.5-3,.5h-6.2,0,0ZM130.8,10.7l-.4-.6h3.4c.7,0,1.2,0,1.8-.2.5-.2.9-.5,1.2-.8.4-.4.6-.7.7-1.2s.2-.9.2-1.4,0-.9-.2-1.4-.4-.8-.7-1.2-.7-.6-1.2-.8-1.1-.2-1.8-.2h-3.6l.5-.6v8.4h.1ZM145,12.7V.2h10.3v2.6h-7.3v7.3h7.6v2.6h-10.6ZM146.5,7.6v-2.5h8v2.5h-8ZM160,12.7V.2h6.7c.9,0,1.8,0,2.4.5.7.4,1.2.8,1.5,1.4s.6,1.3.6,2.1-.2,1.5-.6,2.1-.9,1.2-1.7,1.5c-.7.4-1.4.6-2.4.6h-3.8v4.4h-3,.3ZM168.3,12.7l-3.9-5.7,3.2-.5,4.3,6.2h-3.6ZM162.9,6.1h3.4c.4,0,.7,0,.9-.2.2-.1.5-.4.6-.6s.2-.6.2-.8,0-.6-.2-.8c-.1-.2-.4-.5-.7-.6-.2-.1-.6-.2-.9-.2h-3.3v3.3h0Z"/>
</svg>