<svg width="80" height="27" viewBox="0 0 80 27" fill="none" xmlns="http://www.w3.org/2000/svg">
        <path d="M69.7644 2.57813C69.4533 1.65625 68.5822 1 67.5556 1H50.4444C49.4178 1 48.5622 1.65625 48.2356 2.57813L45 11.9375V24.4375C45 25.2969 45.7 26 46.5556 26H48.1111C48.9667 26 49.6667 25.2969 49.6667 24.4375V22.875H68.3333V24.4375C68.3333 25.2969 69.0333 26 69.8889 26H71.4444C72.3 26 73 25.2969 73 24.4375V11.9375L69.7644 2.57813ZM50.4444 18.1875C49.1533 18.1875 48.1111 17.1406 48.1111 15.8438C48.1111 14.5469 49.1533 13.5 50.4444 13.5C51.7356 13.5 52.7778 14.5469 52.7778 15.8438C52.7778 17.1406 51.7356 18.1875 50.4444 18.1875ZM67.5556 18.1875C66.2644 18.1875 65.2222 17.1406 65.2222 15.8438C65.2222 14.5469 66.2644 13.5 67.5556 13.5C68.8467 13.5 69.8889 14.5469 69.8889 15.8438C69.8889 17.1406 68.8467 18.1875 67.5556 18.1875ZM48.1111 10.375L50.4444 3.34375H67.5556L69.8889 10.375H48.1111Z" fill="white"/>
        <path d="M12 0C13.4667 0 14.6667 1.215 14.6667 2.7C14.6667 4.185 13.4667 5.4 12 5.4C10.5333 5.4 9.33333 4.185 9.33333 2.7C9.33333 1.215 10.5333 0 12 0ZM24 9.45H16V27H13.3333V18.9H10.6667V27H8V9.45H0V6.75H24V9.45Z" fill="white"/>
</svg>