<svg width="56" height="56" viewBox="0 0 56 56" fill="none" xmlns="http://www.w3.org/2000/svg">
<g filter="url(#filter0_d_108_613)">
<circle cx="28" cy="24" r="23" fill="url(#paint0_linear_108_613)" stroke="#CACACA" stroke-width="2"/>
<path d="M37.4223 14.4682C37.1395 13.6637 36.3475 13.0909 35.4142 13.0909H19.8586C18.9253 13.0909 18.1475 13.6637 17.8506 14.4682L14.9091 22.6364V33.5455C14.9091 34.2955 15.5455 34.9091 16.3233 34.9091H17.7374C18.5152 34.9091 19.1516 34.2955 19.1516 33.5455V32.1819H36.1213V33.5455C36.1213 34.2955 36.7576 34.9091 37.5354 34.9091H38.9496C39.7273 34.9091 40.3637 34.2955 40.3637 33.5455V22.6364L37.4223 14.4682ZM19.8586 28.0909C18.6849 28.0909 17.7374 27.1773 17.7374 26.0455C17.7374 24.9137 18.6849 24 19.8586 24C21.0324 24 21.9799 24.9137 21.9799 26.0455C21.9799 27.1773 21.0324 28.0909 19.8586 28.0909ZM35.4142 28.0909C34.2405 28.0909 33.293 27.1773 33.293 26.0455C33.293 24.9137 34.2405 24 35.4142 24C36.5879 24 37.5354 24.9137 37.5354 26.0455C37.5354 27.1773 36.5879 28.0909 35.4142 28.0909ZM17.7374 21.2728L19.8586 15.1364H35.4142L37.5354 21.2728H17.7374Z" fill="white"/>
</g>
<defs>
<filter id="filter0_d_108_613" x="0" y="0" width="56" height="56" filterUnits="userSpaceOnUse" color-interpolation-filters="sRGB">
<feFlood flood-opacity="0" result="BackgroundImageFix"/>
<feColorMatrix in="SourceAlpha" type="matrix" values="0 0 0 0 0 0 0 0 0 0 0 0 0 0 0 0 0 0 127 0" result="hardAlpha"/>
<feOffset dy="4"/>
<feGaussianBlur stdDeviation="2"/>
<feComposite in2="hardAlpha" operator="out"/>
<feColorMatrix type="matrix" values="0 0 0 0 0 0 0 0 0 0.733333 0 0 0 0 0.788235 0 0 0 0.25 0"/>
<feBlend mode="normal" in2="BackgroundImageFix" result="effect1_dropShadow_108_613"/>
<feBlend mode="normal" in="SourceGraphic" in2="effect1_dropShadow_108_613" result="shape"/>
</filter>
<linearGradient id="paint0_linear_108_613" x1="4" y1="0" x2="55.1547" y2="3.63766" gradientUnits="userSpaceOnUse">
<stop stop-color="#00BBC9"/>
<stop offset="1" stop-color="#00747C"/>
</linearGradient>
</defs>
</svg>
