<?xml version="1.0" encoding="UTF-8"?>
<svg id="Capa_1" xmlns="http://www.w3.org/2000/svg" version="1.1" xmlns:xlink="http://www.w3.org/1999/xlink" viewBox="0 0 55.6 55.4">
  <!-- Generator: Adobe Illustrator 29.0.1, SVG Export Plug-In . SVG Version: 2.1.0 Build 192)  -->
  <defs>
    <style>
      .st0 {
        fill: #fff;
      }

      .st1 {
        fill: url(#Degradado_sin_nombre);
        stroke: #d62109;
        stroke-width: 1.1px;
      }
    </style>
    <linearGradient id="Degradado_sin_nombre" data-name="Degradado sin nombre" x1=".1" y1="57.3" x2="55.5" y2="1.8" gradientTransform="translate(0 57.4) scale(1 -1)" gradientUnits="userSpaceOnUse">
      <stop offset="0" stop-color="#d62109"/>
      <stop offset="1" stop-color="#701105"/>
    </linearGradient>
  </defs>
  <path class="st1" d="M27.8,54.7c14.9,0,26.9-12.1,26.9-26.9S42.7.9,27.8.9.9,12.9.9,27.8s12.1,26.9,26.9,26.9Z"/>
  <path class="st0" d="M38.7,16.8c-.3-.9-1.2-1.6-2.3-1.6h-18c-1.1,0-2,.7-2.3,1.6l-3.4,9.4v12.6c0,.9.7,1.6,1.6,1.6h1.6c.9,0,1.6-.7,1.6-1.6v-1.6h19.6v1.6c0,.9.7,1.6,1.6,1.6h1.6c.9,0,1.6-.7,1.6-1.6v-12.6l-3.4-9.4ZM18.4,32.5c-1.4,0-2.4-1.1-2.4-2.4s1.1-2.4,2.4-2.4,2.4,1.1,2.4,2.4-1.1,2.4-2.4,2.4ZM36.4,32.5c-1.4,0-2.4-1.1-2.4-2.4s1.1-2.4,2.4-2.4,2.4,1.1,2.4,2.4-1.1,2.4-2.4,2.4ZM16,24.7l2.4-7.1h18l2.4,7.1H16Z"/>
</svg>