<svg width="64" height="64" viewBox="0 0 64 64" fill="none" xmlns="http://www.w3.org/2000/svg">
<g filter="url(#filter0_d_4_7)">
<path d="M31.5179 56.3036C46.7057 56.3036 59.0179 43.9914 59.0179 28.8036C59.0179 13.6157 46.7057 1.30356 31.5179 1.30356C16.33 1.30356 4.01786 13.6157 4.01786 28.8036C4.01786 43.9914 16.33 56.3036 31.5179 56.3036Z" fill="url(#paint0_linear_4_7)" stroke="#CACACA" stroke-width="1.60714"/>
<path d="M42.7836 17.4068C42.4455 16.4449 41.4986 15.7601 40.3827 15.7601H21.7836C20.6677 15.7601 19.7377 16.4449 19.3827 17.4068L15.8657 27.1732V40.2167C15.8657 41.1134 16.6266 41.847 17.5566 41.847H19.2474C20.1773 41.847 20.9382 41.1134 20.9382 40.2167V38.5863H41.2281V40.2167C41.2281 41.1134 41.9889 41.847 42.9189 41.847H44.6098C45.5396 41.847 46.3005 41.1134 46.3005 40.2167V27.1732L42.7836 17.4068ZM21.7836 33.6949C20.3802 33.6949 19.2474 32.6025 19.2474 31.2493C19.2474 29.896 20.3802 28.8036 21.7836 28.8036C23.187 28.8036 24.3199 29.896 24.3199 31.2493C24.3199 32.6025 23.187 33.6949 21.7836 33.6949ZM40.3827 33.6949C38.9793 33.6949 37.8464 32.6025 37.8464 31.2493C37.8464 29.896 38.9793 28.8036 40.3827 28.8036C41.786 28.8036 42.9189 29.896 42.9189 31.2493C42.9189 32.6025 41.786 33.6949 40.3827 33.6949ZM19.2474 25.5428L21.7836 18.2058H40.3827L42.9189 25.5428H19.2474Z" fill="white"/>
</g>
<defs>
<filter id="filter0_d_4_7" x="1.19209e-06" y="0.5" width="63.0357" height="63.0357" filterUnits="userSpaceOnUse" color-interpolation-filters="sRGB">
<feFlood flood-opacity="0" result="BackgroundImageFix"/>
<feColorMatrix in="SourceAlpha" type="matrix" values="0 0 0 0 0 0 0 0 0 0 0 0 0 0 0 0 0 0 127 0" result="hardAlpha"/>
<feOffset dy="3.21429"/>
<feGaussianBlur stdDeviation="1.60714"/>
<feComposite in2="hardAlpha" operator="out"/>
<feColorMatrix type="matrix" values="0 0 0 0 0 0 0 0 0 0.733333 0 0 0 0 0.788235 0 0 0 0.25 0"/>
<feBlend mode="normal" in2="BackgroundImageFix" result="effect1_dropShadow_4_7"/>
<feBlend mode="normal" in="SourceGraphic" in2="effect1_dropShadow_4_7" result="shape"/>
</filter>
<linearGradient id="paint0_linear_4_7" x1="2.8222" y1="0.107907" x2="63.9854" y2="4.45728" gradientUnits="userSpaceOnUse">
<stop stop-color="#00BBC9"/>
<stop offset="1" stop-color="#00747C"/>
</linearGradient>
</defs>
</svg>
